<svg xmlns="http://www.w3.org/2000/svg" width="116" height="100" viewBox="0 0 116 100" fill="none"><path fill-rule="evenodd" clip-rule="evenodd" d="M69.0366 73.0726L104.425 99.5097L115.1 84.7608L79.2567 58.5695C75.7372 63.4275 72.5561 68.2147 69.0366 73.0726Z" fill="#032B44"></path><path fill-rule="evenodd" clip-rule="evenodd" d="M115.093 15.4567C92.8009 21.3854 69.5962 39.7372 58.6572 67.8856C53.9584 52.6746 46.645 42.4418 37.3003 36.0729L49.8606 27.0986C54.9138 31.0003 59.004 36.4054 62.2601 43.1102C76.051 26.1482 95.3793 17.6512 115.093 15.4567Z" fill="#04D89D"></path><path fill-rule="evenodd" clip-rule="evenodd" d="M115.037 15.947C95.1032 24.5399 75.9871 43.3547 68.7999 64.2958L61.6894 68.7665C61.2567 69.0384 73.923 29.5889 115.037 15.947Z" fill="#032B44"></path><path fill-rule="evenodd" clip-rule="evenodd" d="M48.736 0.000854492C62.1877 0.000854492 74.3667 5.45141 83.1852 14.2632L70.8514 27.5626C65.3099 22.0076 57.6472 18.5707 49.1805 18.5707C32.2749 18.5707 18.5706 32.2757 18.5706 49.1805C18.5706 66.0861 32.2757 79.7903 49.1805 79.7903C59.1043 79.7903 67.9228 75.0671 73.5156 67.7469L88.8606 76.4005C80.0681 89.1291 65.3773 97.472 48.736 97.472C21.8199 97.472 0 75.6521 0 48.736C0 21.8199 21.8199 0.000854492 48.736 0.000854492Z" fill="#032B44"></path></svg>